<svg xmlns="http://www.w3.org/2000/svg" xmlns:xlink="http://www.w3.org/1999/xlink" viewBox="0 0 728.71 1117.46"><defs><style>.cls-1{fill:none;}.cls-2{fill:#aca995;}.cls-3{fill:#cbc8b1;}.cls-4{clip-path:url(#clip-path);}.cls-5{fill:url(#linear-gradient);}.cls-6{fill:#b3b09b;}.cls-7{fill:url(#linear-gradient-3);}.cls-8{fill:url(#linear-gradient-4);}.cls-9{fill:url(#linear-gradient-5);}.cls-10{fill:#bab69d;}.cls-11{fill:#4c4b4b;}.cls-12{fill:#c2c0ae;}.cls-13{fill:#525252;}.cls-14{fill:url(#linear-gradient-6);}.cls-15{fill:url(#linear-gradient-7);}.cls-16{fill:#4a4a4a;}.cls-17{fill:#cdc9b3;}.cls-18{clip-path:url(#clip-path-2);}.cls-19{fill:#69b012;}.cls-20{fill:#f8bb13;}.cls-21{fill:#e68302;}.cls-22{fill:#c62d32;}.cls-23{fill:#862872;}.cls-24{fill:#1390d0;}</style><clipPath id="clip-path"><path class="cls-1" d="M23,.5H602q.59,0,1.17,0c.39,0,.78,0,1.17.08s.77.08,1.15.13.77.12,1.14.19.76.15,1.13.24.74.18,1.1.29L610,1.8l1.06.4,1,.44c.35.16.68.32,1,.5s.66.35,1,.54.64.38,1,.59.62.41.92.63.59.45.88.68.57.48.84.73.55.5.81.76.52.53.76.81.49.55.73.84.46.58.68.88.43.61.63.92.4.62.59,1,.37.64.54,1,.34.66.5,1,.3.68.44,1,.27.71.4,1.06.23.72.34,1.09.2.73.29,1.1.17.75.24,1.13.14.75.19,1.14.1.76.13,1.15.07.78.08,1.17,0,.78,0,1.17V787q0,.59,0,1.17c0,.39,0,.78-.08,1.17s-.08.77-.13,1.15-.12.77-.19,1.14-.15.76-.24,1.13-.18.74-.29,1.1-.22.73-.34,1.09-.26.71-.4,1.06-.29.69-.44,1-.32.68-.5,1-.35.66-.54,1-.38.64-.59,1-.41.62-.63.92-.45.59-.68.88-.48.57-.73.84-.5.55-.76.81-.53.52-.81.76-.55.49-.84.73-.58.46-.88.68-.61.43-.92.63-.62.4-1,.59-.64.37-1,.54-.66.34-1,.5l-1,.44-1.06.4-1.09.34c-.36.11-.73.2-1.1.29s-.75.17-1.13.24-.75.14-1.14.19-.76.1-1.15.13-.78.07-1.17.08L602,810H23l-1.17,0c-.39,0-.78,0-1.17-.08s-.77-.08-1.15-.13-.77-.12-1.14-.19-.76-.15-1.13-.24-.74-.18-1.1-.29-.73-.22-1.09-.34L14,808.3l-1-.44c-.35-.16-.68-.32-1-.5s-.66-.35-1-.54-.64-.38-1-.59-.62-.41-.92-.63-.59-.45-.88-.68-.57-.48-.84-.73-.55-.5-.81-.76-.52-.53-.76-.81-.49-.55-.73-.84-.46-.58-.68-.88-.43-.61-.63-.92-.4-.62-.59-1-.37-.64-.54-1-.34-.66-.5-1-.3-.68-.44-1-.27-.71-.4-1.06-.23-.72-.34-1.09-.2-.73-.29-1.1S.5,792,.43,791.63s-.14-.75-.19-1.14-.1-.76-.13-1.15S0,788.56,0,788.17s0-.78,0-1.17V23.5q0-.59,0-1.17c0-.39,0-.78.08-1.17S.19,20.39.24,20s.12-.77.19-1.14.15-.76.24-1.13S.85,17,1,16.64s.22-.73.34-1.09.26-.71.4-1.06.29-.69.44-1,.32-.68.5-1,.35-.66.54-1,.38-.64.59-1,.41-.62.63-.92.45-.59.68-.88.48-.57.73-.84.5-.55.76-.81.53-.52.81-.76.55-.49.84-.73.58-.46.88-.68.61-.43.92-.63.62-.4,1-.59.64-.37,1-.54.66-.34,1-.5l1-.44,1.06-.4,1.09-.34c.36-.11.73-.2,1.1-.29S18,1,18.37.93s.75-.14,1.14-.19.76-.1,1.15-.13.78-.07,1.17-.08S22.61.5,23,.5Z"/></clipPath><linearGradient id="linear-gradient" x1="-290.05" y1="817.47" x2="-290.05" y2="816.47" gradientTransform="matrix(312.8, -312.8, -410.12, -410.12, 426150.11, 245084.42)" gradientUnits="userSpaceOnUse"><stop offset="0" stop-opacity="0.06"/><stop offset="1" stop-opacity="0"/></linearGradient><linearGradient id="linear-gradient-3" x1="-290.73" y1="817.66" x2="-289.75" y2="816.68" gradientTransform="matrix(625, 0, 0, -709.98, 181719, 580538.28)" gradientUnits="userSpaceOnUse"><stop offset="0" stop-color="#e8e4cf"/><stop offset="1" stop-color="#c4c1aa"/></linearGradient><linearGradient id="linear-gradient-4" x1="-290.71" y1="817.67" x2="-289.71" y2="816.68" gradientTransform="matrix(576, 0, 0, -652, 167483, 533167)" gradientUnits="userSpaceOnUse"><stop offset="0" stop-color="#eae7d5"/><stop offset="1" stop-color="#c9c8b4"/></linearGradient><linearGradient id="linear-gradient-5" x1="-290.7" y1="817.83" x2="-289.68" y2="816.82" gradientTransform="matrix(516, 0, 0, -390, 150054, 319025)" gradientUnits="userSpaceOnUse"><stop offset="0" stop-color="#d7d4c2"/><stop offset="1" stop-color="#c9c7b4"/></linearGradient><linearGradient id="linear-gradient-6" x1="-290.79" y1="818.02" x2="-289.67" y2="816.82" gradientTransform="matrix(472.5, 0, 0, -356.33, 137416.5, 291514.16)" gradientUnits="userSpaceOnUse"><stop offset="0" stop-color="#5e5e5e"/><stop offset="1" stop-color="#474747"/></linearGradient><linearGradient id="linear-gradient-7" x1="-290.64" y1="817.93" x2="-289.62" y2="816.92" gradientTransform="matrix(436, 0, 0, -294, 126813, 240593)" gradientUnits="userSpaceOnUse"><stop offset="0" stop-color="#ececec"/><stop offset="1" stop-color="#eaeaea"/></linearGradient><clipPath id="clip-path-2"><path class="cls-1" d="M58,611H92l.41,0,.4.05.38.1a2.84,2.84,0,0,1,.38.13,2.21,2.21,0,0,1,.35.16,2.33,2.33,0,0,1,.34.2l.31.22.29.26c.09.09.17.19.26.29a3.46,3.46,0,0,1,.22.31,2.33,2.33,0,0,1,.2.34,2.21,2.21,0,0,1,.16.35,2.84,2.84,0,0,1,.13.38c0,.12.07.25.1.38s0,.27,0,.4,0,.27,0,.41v33c0,.14,0,.27,0,.41s0,.26,0,.4-.06.26-.1.38a2.84,2.84,0,0,1-.13.38,2.21,2.21,0,0,1-.16.35,2.33,2.33,0,0,1-.2.34,3.46,3.46,0,0,1-.22.31c-.09.1-.17.2-.26.29l-.29.26-.31.22a2.33,2.33,0,0,1-.34.2,2.21,2.21,0,0,1-.35.16,2.84,2.84,0,0,1-.38.13l-.38.1-.4.05L92,652H58l-.41,0-.4-.05-.38-.1a2.84,2.84,0,0,1-.38-.13,2.21,2.21,0,0,1-.35-.16,2.33,2.33,0,0,1-.34-.2l-.31-.22-.29-.26c-.09-.09-.17-.19-.26-.29a3.46,3.46,0,0,1-.22-.31,2.33,2.33,0,0,1-.2-.34,2.21,2.21,0,0,1-.16-.35,2.84,2.84,0,0,1-.13-.38c0-.12-.07-.25-.1-.38s0-.27,0-.4,0-.27,0-.41V615c0-.14,0-.27,0-.41s0-.26,0-.4.06-.26.1-.38a2.84,2.84,0,0,1,.13-.38,2.21,2.21,0,0,1,.16-.35,2.33,2.33,0,0,1,.2-.34,3.46,3.46,0,0,1,.22-.31c.09-.1.17-.2.26-.29l.29-.26.31-.22a2.33,2.33,0,0,1,.34-.2,2.21,2.21,0,0,1,.35-.16,2.84,2.84,0,0,1,.38-.13l.38-.1.4-.05Z"/></clipPath></defs><title>Asset 1</title><g id="Layer_2" data-name="Layer 2"><g id="Layer_1-2" data-name="Layer 1"><g id="Housing-bottom"><path id="Mask-Copy" class="cls-2" d="M23,.5H602q.59,0,1.17,0c.39,0,.78,0,1.17.08s.77.08,1.15.13.77.12,1.14.19.76.15,1.13.24.74.18,1.1.29L610,1.8l1.06.4,1,.44c.35.16.68.32,1,.5s.66.35,1,.54.64.38,1,.59.62.41.92.63.59.45.88.68.57.48.84.73.55.5.81.76.52.53.76.81.49.55.73.84.46.58.68.88.43.61.63.92.4.62.59,1,.37.64.54,1,.34.66.5,1,.3.68.44,1,.27.71.4,1.06.23.72.34,1.09.2.73.29,1.1.17.75.24,1.13.14.75.19,1.14.1.76.13,1.15.07.78.08,1.17,0,.78,0,1.17V787q0,.59,0,1.17c0,.39,0,.78-.08,1.17s-.08.77-.13,1.15-.12.77-.19,1.14-.15.76-.24,1.13-.18.74-.29,1.1-.22.73-.34,1.09-.26.71-.4,1.06-.29.69-.44,1-.32.68-.5,1-.35.66-.54,1-.38.64-.59,1-.41.62-.63.92-.45.59-.68.88-.48.57-.73.84-.5.55-.76.81-.53.52-.81.76-.55.49-.84.73-.58.46-.88.68-.61.43-.92.63-.62.4-1,.59-.64.37-1,.54-.66.34-1,.5l-1,.44-1.06.4-1.09.34c-.36.11-.73.2-1.1.29s-.75.17-1.13.24-.75.14-1.14.19-.76.1-1.15.13-.78.07-1.17.08L602,810H23l-1.17,0c-.39,0-.78,0-1.17-.08s-.77-.08-1.15-.13-.77-.12-1.14-.19-.76-.15-1.13-.24-.74-.18-1.1-.29-.73-.22-1.09-.34L14,808.3l-1-.44c-.35-.16-.68-.32-1-.5s-.66-.35-1-.54-.64-.38-1-.59-.62-.41-.92-.63-.59-.45-.88-.68-.57-.48-.84-.73-.55-.5-.81-.76-.52-.53-.76-.81-.49-.55-.73-.84-.46-.58-.68-.88-.43-.61-.63-.92-.4-.62-.59-1-.37-.64-.54-1-.34-.66-.5-1-.3-.68-.44-1-.27-.71-.4-1.06-.23-.72-.34-1.09-.2-.73-.29-1.1S.5,792,.43,791.63s-.14-.75-.19-1.14-.1-.76-.13-1.15S0,788.56,0,788.17s0-.78,0-1.17V23.5q0-.59,0-1.17c0-.39,0-.78.08-1.17S.19,20.39.24,20s.12-.77.19-1.14.15-.76.24-1.13S.85,17,1,16.64s.22-.73.34-1.09.26-.71.4-1.06.29-.69.44-1,.32-.68.5-1,.35-.66.54-1,.38-.64.59-1,.41-.62.63-.92.45-.59.68-.88.48-.57.73-.84.5-.55.76-.81.53-.52.81-.76.55-.49.84-.73.58-.46.88-.68.61-.43.92-.63.62-.4,1-.59.64-.37,1-.54.66-.34,1-.5l1-.44,1.06-.4,1.09-.34c.36-.11.73-.2,1.1-.29S18,1,18.37.93s.75-.14,1.14-.19.76-.1,1.15-.13.78-.07,1.17-.08S22.61.5,23,.5Z"/><path id="Mask" class="cls-3" d="M23,651.5H602l1.17,0c.39,0,.78,0,1.17.08s.77.08,1.15.13.77.12,1.14.19.76.15,1.13.24.74.18,1.1.29l1.09.34,1.06.4,1,.44c.35.16.68.32,1,.5s.66.35,1,.54.64.38,1,.59.62.41.92.63.59.45.88.68.57.48.84.73.55.5.81.76.52.53.76.81.49.55.73.84.46.58.68.88.43.61.63.92.4.62.59,1,.37.64.54,1,.34.66.5,1,.3.68.44,1,.27.71.4,1.06.23.72.34,1.09.2.73.29,1.1.17.75.24,1.13.14.75.19,1.14.1.76.13,1.15.07.78.08,1.17,0,.78,0,1.17V782q0,.59,0,1.17c0,.39,0,.78-.08,1.17s-.08.77-.13,1.15-.12.77-.19,1.14-.15.76-.24,1.13-.18.74-.29,1.1-.22.73-.34,1.09-.26.71-.4,1.06-.29.69-.44,1-.32.68-.5,1-.35.66-.54,1-.38.64-.59,1-.41.62-.63.92-.45.59-.68.88-.48.57-.73.84-.5.55-.76.81-.53.52-.81.76-.55.49-.84.73-.58.46-.88.68-.61.43-.92.63-.62.4-1,.59-.64.37-1,.54-.66.34-1,.5l-1,.44-1.06.4-1.09.34c-.36.11-.73.2-1.1.29s-.75.17-1.13.24-.75.14-1.14.19-.76.1-1.15.13-.78.07-1.17.08L602,805H23l-1.17,0c-.39,0-.78,0-1.17-.08s-.77-.08-1.15-.13-.77-.12-1.14-.19-.76-.15-1.13-.24-.74-.18-1.1-.29l-1.09-.34L14,803.3l-1-.44c-.35-.16-.68-.32-1-.5s-.66-.35-1-.54-.64-.38-1-.59-.62-.41-.92-.63-.59-.45-.88-.68-.57-.48-.84-.73-.55-.5-.81-.76-.52-.53-.76-.81-.49-.55-.73-.84-.46-.58-.68-.88-.43-.61-.63-.92-.4-.62-.59-1-.37-.64-.54-1-.34-.66-.5-1-.3-.68-.44-1-.27-.71-.4-1.06-.23-.72-.34-1.09-.2-.73-.29-1.1S.5,787,.43,786.63s-.14-.75-.19-1.14-.1-.76-.13-1.15S0,783.56,0,783.17s0-.78,0-1.17V674.5q0-.59,0-1.17c0-.39,0-.78.08-1.17s.08-.77.13-1.15.12-.77.19-1.14.15-.76.24-1.13.18-.74.29-1.1.22-.73.34-1.09.26-.71.4-1.06.29-.69.44-1,.32-.68.5-1,.35-.66.54-1,.38-.64.59-1,.41-.62.63-.92.45-.59.68-.88.48-.57.73-.84.5-.55.76-.81.53-.52.81-.76.55-.49.84-.73.58-.46.88-.68.61-.43.92-.63.62-.4,1-.59.64-.37,1-.54.66-.34,1-.5l1-.44,1.06-.4,1.09-.34c.36-.11.73-.2,1.1-.29s.75-.17,1.13-.24.75-.14,1.14-.19.76-.1,1.15-.13.78-.07,1.17-.08Z"/><g class="cls-4"><path id="Rectangle-32-Copy" class="cls-5" d="M5.78,707.34l312.81-312.8L728.71,804.66,415.9,1117.46Z"/><path id="Rectangle-32" class="cls-5" d="M5.78,707.34l312.81-312.8L728.71,804.66,415.9,1117.46Z"/></g></g><g id="Housing-top"><path id="Rectangle-20-Copy" class="cls-6" d="M23,5.28H602l1.17,0c.39,0,.78,0,1.17.08s.77.08,1.15.13.77.12,1.14.19.76.15,1.13.24.74.18,1.1.29.73.22,1.09.34.71.26,1.06.4.69.28,1,.44.68.32,1,.5.66.35,1,.54.64.38,1,.59.62.41.92.63.59.45.88.68.57.48.84.73.55.5.81.76.52.53.76.81.49.55.73.84.46.58.68.88.43.6.63.92.4.62.59.94.37.65.54,1,.34.67.5,1,.3.69.44,1,.27.7.4,1.06.23.72.34,1.09.2.73.29,1.1.17.75.24,1.13.14.75.19,1.14.1.76.13,1.15.07.77.08,1.16,0,.79,0,1.18v664q0,.59,0,1.17c0,.39,0,.78-.08,1.17s-.08.77-.13,1.15-.12.77-.19,1.14-.15.76-.24,1.13-.18.74-.29,1.1-.22.73-.34,1.09-.26.71-.4,1.06-.29.69-.44,1-.32.67-.5,1-.35.66-.54,1-.38.64-.59,1-.41.62-.63.92-.45.59-.68.88-.48.57-.73.84-.5.55-.76.81-.53.52-.81.76-.55.49-.84.73-.58.46-.88.68-.61.43-.92.63-.62.4-1,.59-.64.37-1,.54-.66.34-1,.5l-1,.44L610,714l-1.09.34c-.36.11-.73.2-1.1.29s-.75.17-1.13.24-.75.14-1.14.19-.76.1-1.15.13-.78.07-1.17.08l-1.17,0H23l-1.17,0c-.39,0-.78,0-1.17-.08s-.77-.08-1.15-.13-.77-.12-1.14-.19-.76-.15-1.13-.24-.74-.18-1.1-.29L15.05,714l-1.06-.4-1-.44c-.35-.16-.68-.32-1-.5s-.66-.35-1-.54-.64-.38-1-.59-.62-.41-.92-.63-.59-.45-.88-.68-.57-.48-.84-.73-.55-.5-.81-.76-.52-.53-.76-.81-.49-.55-.73-.84-.46-.58-.68-.88-.43-.6-.63-.92-.4-.62-.59-1-.37-.64-.54-1-.34-.66-.5-1-.3-.69-.44-1-.27-.7-.4-1.06-.23-.72-.34-1.09-.2-.73-.29-1.1-.17-.75-.24-1.13-.14-.75-.19-1.14-.1-.76-.13-1.15S0,693.82,0,693.43s0-.78,0-1.17v-664c0-.39,0-.79,0-1.18s0-.77.08-1.16.08-.77.13-1.15.12-.77.19-1.14.15-.76.24-1.13.18-.74.29-1.1.22-.73.34-1.09.26-.71.4-1.06.29-.7.44-1,.32-.67.5-1,.35-.65.54-1,.38-.63.59-.94.41-.62.63-.92.45-.59.68-.88.48-.57.73-.84.5-.55.76-.81.53-.52.81-.76.55-.49.84-.73.58-.46.88-.68.61-.43.92-.63.62-.4,1-.59.64-.37,1-.54.66-.34,1-.5.68-.3,1-.44.71-.28,1.06-.4.72-.24,1.09-.34S16.87,6,17.24,6s.75-.17,1.13-.24.75-.14,1.14-.19.76-.1,1.15-.13.78-.07,1.17-.08Z"/><path id="Rectangle-20" class="cls-7" d="M23,0H602l1.17,0c.39,0,.78,0,1.17.08s.77.08,1.15.13.77.12,1.14.19.76.15,1.13.24.74.18,1.1.29L610,1.3l1.06.4,1,.44c.35.16.68.32,1,.5s.66.35,1,.54.64.38,1,.59.62.41.92.63.59.45.88.68.57.48.84.73.55.5.81.76.52.53.76.81.49.55.73.84.46.58.68.88.43.61.63.92.4.62.59,1,.37.64.54,1,.34.66.5,1,.3.68.44,1,.27.71.4,1.06.23.72.34,1.09.2.73.29,1.1.17.75.24,1.13.14.75.19,1.14.1.76.13,1.15.07.78.08,1.17,0,.78,0,1.17V687c0,.39,0,.79,0,1.18s0,.77-.08,1.16-.08.77-.13,1.15-.12.77-.19,1.14-.15.76-.24,1.13-.18.74-.29,1.1-.22.73-.34,1.09-.26.71-.4,1.06-.29.7-.44,1-.32.67-.5,1-.35.65-.54,1-.38.63-.59,1-.41.61-.63.91-.45.59-.68.88-.48.57-.73.84-.5.55-.76.81-.53.52-.81.76-.55.49-.84.73-.58.46-.88.68-.61.43-.92.63-.62.4-1,.59-.64.37-1,.54-.66.34-1,.5-.68.3-1,.44-.71.28-1.06.4-.72.24-1.09.34-.73.21-1.1.29-.75.17-1.13.24-.75.14-1.14.19l-1.15.14-1.17.08L602,710H23l-1.17,0-1.17-.08-1.15-.14c-.39,0-.77-.11-1.14-.19s-.76-.15-1.13-.24-.74-.18-1.1-.29-.73-.22-1.09-.34-.71-.26-1.06-.4-.69-.28-1-.44-.68-.32-1-.5-.66-.35-1-.54-.64-.38-1-.59-.62-.41-.92-.63-.59-.45-.88-.68-.57-.48-.84-.73-.55-.5-.81-.76-.52-.53-.76-.81-.49-.55-.73-.84-.46-.58-.68-.88-.43-.6-.63-.91-.4-.63-.59-1-.37-.65-.54-1-.34-.67-.5-1-.3-.69-.44-1-.27-.7-.4-1.06-.23-.72-.34-1.09-.2-.73-.29-1.1S.5,692,.43,691.61s-.14-.75-.19-1.14-.1-.76-.13-1.15S0,688.55,0,688.16s0-.79,0-1.18V23q0-.59,0-1.17c0-.39,0-.78.08-1.17s.08-.77.13-1.15.12-.77.19-1.14.15-.76.24-1.13.18-.74.29-1.1.22-.73.34-1.09.26-.71.4-1.06.29-.69.44-1,.32-.68.5-1,.35-.66.54-1,.38-.64.59-1,.41-.62.63-.92.45-.59.68-.88.48-.57.73-.84.5-.55.76-.81.53-.52.81-.76.55-.49.84-.73.58-.46.88-.68S9.71,4,10,3.77s.62-.4,1-.59.64-.37,1-.54.66-.34,1-.5l1-.44,1.06-.4L16.14,1c.36-.11.73-.2,1.1-.29S18,.5,18.37.43s.75-.14,1.14-.19.76-.1,1.15-.13S21.44,0,21.83,0Z"/><path id="Rectangle-20-Copy-2" class="cls-8" d="M46,29H576q.59,0,1.17,0c.39,0,.78,0,1.17.08s.77.08,1.15.13.77.12,1.14.19.76.15,1.13.24.74.18,1.1.29l1.09.34,1.06.4,1,.44c.35.16.68.32,1,.5s.66.35,1,.54.64.38,1,.59.62.41.92.63.59.45.88.68.57.48.84.73.55.5.81.76.52.53.76.81.49.55.73.84.46.58.68.88.43.61.63.92.4.62.59.95.37.64.54,1,.34.66.5,1,.3.68.44,1,.27.71.4,1.06.23.72.34,1.09.2.73.29,1.1.17.75.24,1.13.14.75.19,1.14.1.76.13,1.15.07.78.08,1.17,0,.78,0,1.17V658q0,.59,0,1.17c0,.39,0,.78-.08,1.17s-.08.77-.13,1.15-.12.77-.19,1.14-.15.76-.24,1.13-.18.74-.29,1.1-.22.73-.34,1.09-.26.71-.4,1.06-.29.69-.44,1-.32.68-.5,1-.35.66-.54,1-.38.64-.59,1-.41.62-.63.92-.45.59-.68.88-.48.57-.73.84-.5.55-.76.81-.53.52-.81.76-.55.49-.84.73-.58.46-.88.68-.61.43-.92.63-.62.4-1,.59-.64.37-1,.54-.66.34-1,.5l-1,.44-1.06.4-1.09.34c-.36.11-.73.2-1.1.29s-.75.17-1.13.24-.75.14-1.14.19-.76.1-1.15.13-.78.07-1.17.08L576,681H46l-1.17,0c-.39,0-.78,0-1.17-.08s-.77-.08-1.15-.13-.77-.12-1.14-.19-.76-.15-1.13-.24-.74-.18-1.1-.29l-1.09-.34L37,679.3l-1-.44c-.35-.16-.68-.32-1-.5s-.66-.35-1-.54-.64-.38-.95-.59-.62-.41-.92-.63-.59-.45-.88-.68-.57-.48-.84-.73-.55-.5-.81-.76-.52-.53-.76-.81-.49-.55-.73-.84-.46-.58-.68-.88-.43-.61-.63-.92-.4-.62-.59-1-.37-.64-.54-1-.34-.66-.5-1-.3-.68-.44-1-.27-.71-.4-1.06-.23-.72-.34-1.09-.2-.73-.29-1.1-.17-.75-.24-1.13-.14-.75-.19-1.14-.1-.76-.13-1.15-.07-.78-.08-1.17,0-.78,0-1.17V52q0-.59,0-1.17c0-.39,0-.78.08-1.17s.08-.77.13-1.15.12-.77.19-1.14.15-.76.24-1.13.18-.74.29-1.1.22-.73.34-1.09.26-.71.4-1.06.29-.69.44-1,.32-.68.5-1,.35-.66.54-1,.38-.64.59-.95.41-.62.63-.92.45-.59.68-.88.48-.57.73-.84.5-.55.76-.81.53-.52.81-.76.55-.49.84-.73.58-.46.88-.68.61-.43.92-.63.62-.4.95-.59.64-.37,1-.54.66-.34,1-.5l1-.44,1.06-.4L39.14,30c.36-.11.73-.2,1.1-.29s.75-.17,1.13-.24.75-.14,1.14-.19.76-.1,1.15-.13.78-.07,1.17-.08S45.61,29,46,29Z"/><path id="Rectangle-22" class="cls-9" d="M62,72H562.41c.13,0,.27,0,.4,0l.4,0,.4.07.39.08.39.1.37.12.37.14a3,3,0,0,1,.36.16l.36.17.34.19.33.2.31.22.31.24a3.47,3.47,0,0,1,.29.25,10.7,10.7,0,0,1,.55.55,3.47,3.47,0,0,1,.25.29l.24.31.22.31c.07.11.14.22.2.33l.19.35.18.35q.07.17.15.36c.05.12.09.24.14.37l.12.37c0,.13.07.26.1.39s.06.26.08.39,0,.26.07.39,0,.27,0,.41,0,.27,0,.4,0,.27,0,.41V454c0,.14,0,.27,0,.41s0,.27,0,.4,0,.27,0,.4,0,.27-.07.4-.05.26-.08.39-.07.26-.1.39l-.12.37c0,.13-.09.25-.14.37s-.1.25-.15.36l-.18.36-.19.34c-.06.11-.13.22-.2.33l-.22.31-.24.31a3.47,3.47,0,0,1-.25.29,10.7,10.7,0,0,1-.55.55,3.47,3.47,0,0,1-.29.25l-.31.24-.31.22-.33.2-.34.19-.36.18-.36.15-.37.14-.37.12-.39.1-.39.08-.4.07-.4,0c-.13,0-.27,0-.4,0H61.59c-.13,0-.27,0-.4,0l-.41,0-.39-.07-.39-.08-.39-.1-.37-.12-.37-.14-.36-.15-.35-.18-.35-.19-.33-.2-.31-.22-.31-.24a3.47,3.47,0,0,1-.29-.25,10.7,10.7,0,0,1-.55-.55,3.47,3.47,0,0,1-.25-.29l-.24-.31-.22-.31c-.07-.11-.14-.22-.2-.33l-.19-.34c-.06-.12-.12-.24-.17-.36a3,3,0,0,1-.16-.36c-.05-.12-.09-.24-.14-.37l-.12-.37c0-.13-.07-.26-.1-.39s-.06-.26-.08-.39,0-.26-.07-.4,0-.26,0-.4,0-.27,0-.4,0-.27,0-.41V80c0-.14,0-.27,0-.41s0-.27,0-.4,0-.27,0-.41,0-.26.07-.39.05-.26.08-.39.07-.26.1-.39l.12-.37c0-.13.09-.25.14-.37a3,3,0,0,1,.16-.36,3.78,3.78,0,0,1,.17-.35l.19-.35c.06-.11.13-.22.2-.33l.22-.31.24-.31a3.47,3.47,0,0,1,.25-.29,10.7,10.7,0,0,1,.55-.55,3.47,3.47,0,0,1,.29-.25l.31-.24.31-.22.33-.2.35-.19.35-.17a3,3,0,0,1,.36-.16l.37-.14.37-.12.39-.1.39-.08.39-.07.41,0c.13,0,.27,0,.4,0Z"/></g><g id="Keyboard-input"><path id="Rectangle-33" class="cls-10" d="M471,729h95l.41,0,.4.05.38.1a2.43,2.43,0,0,1,.38.13,2.21,2.21,0,0,1,.35.16,2.33,2.33,0,0,1,.34.2l.31.22.29.26c.09.09.17.19.26.29l.23.31a3.72,3.72,0,0,1,.19.34,3.78,3.78,0,0,1,.17.35c0,.13.09.25.12.38s.07.25.1.38,0,.27.05.4,0,.27,0,.41v51c0,.14,0,.27,0,.41s0,.26-.05.4-.06.26-.1.38-.08.25-.12.38a3.78,3.78,0,0,1-.17.35,3.72,3.72,0,0,1-.19.34l-.23.31c-.09.1-.17.2-.26.29l-.29.26-.31.22a2.33,2.33,0,0,1-.34.2,2.21,2.21,0,0,1-.35.16,2.43,2.43,0,0,1-.38.13l-.38.1-.4.05-.41,0H471l-.41,0-.4-.05-.38-.1a2.84,2.84,0,0,1-.38-.13,2.21,2.21,0,0,1-.35-.16,2.33,2.33,0,0,1-.34-.2l-.31-.22-.29-.26c-.09-.09-.17-.19-.26-.29a3.46,3.46,0,0,1-.22-.31,2.33,2.33,0,0,1-.2-.34,2.21,2.21,0,0,1-.16-.35,2.84,2.84,0,0,1-.13-.38c0-.12-.07-.25-.1-.38s0-.27-.05-.4,0-.27,0-.41V733c0-.14,0-.27,0-.41s0-.26.05-.4.06-.26.1-.38a2.84,2.84,0,0,1,.13-.38,2.21,2.21,0,0,1,.16-.35,2.33,2.33,0,0,1,.2-.34,3.46,3.46,0,0,1,.22-.31c.09-.1.17-.2.26-.29l.29-.26.31-.22a2.33,2.33,0,0,1,.34-.2,2.21,2.21,0,0,1,.35-.16,2.84,2.84,0,0,1,.38-.13l.38-.1.4-.05Z"/><path id="Rectangle-34" class="cls-11" d="M525,737h32l.41,0,.4.05.38.1a2.84,2.84,0,0,1,.38.13,2.21,2.21,0,0,1,.35.16,2.33,2.33,0,0,1,.34.2l.31.22.29.26c.09.09.17.19.26.29a3.46,3.46,0,0,1,.22.31,2.33,2.33,0,0,1,.2.34,2.21,2.21,0,0,1,.16.35,2.84,2.84,0,0,1,.13.38c0,.12.07.25.1.38s0,.27.05.4,0,.27,0,.41v35c0,.14,0,.27,0,.41s0,.26-.05.4-.06.26-.1.38a2.84,2.84,0,0,1-.13.38,2.21,2.21,0,0,1-.16.35,2.33,2.33,0,0,1-.2.34,3.46,3.46,0,0,1-.22.31c-.09.1-.17.2-.26.29l-.29.26-.31.22a2.33,2.33,0,0,1-.34.2,2.21,2.21,0,0,1-.35.16,2.84,2.84,0,0,1-.38.13l-.38.1-.4.05-.41,0H525l-.41,0-.4-.05-.38-.1a2.84,2.84,0,0,1-.38-.13,2.21,2.21,0,0,1-.35-.16,2.33,2.33,0,0,1-.34-.2l-.31-.22-.29-.26c-.09-.09-.17-.19-.26-.29a3.46,3.46,0,0,1-.22-.31,2.33,2.33,0,0,1-.2-.34,2.21,2.21,0,0,1-.16-.35,2.84,2.84,0,0,1-.13-.38c0-.12-.07-.25-.1-.38s0-.27-.05-.4,0-.27,0-.41V741c0-.14,0-.27,0-.41s0-.26.05-.4.06-.26.1-.38a2.84,2.84,0,0,1,.13-.38,2.21,2.21,0,0,1,.16-.35,2.33,2.33,0,0,1,.2-.34,3.46,3.46,0,0,1,.22-.31c.09-.1.17-.2.26-.29l.29-.26.31-.22a2.33,2.33,0,0,1,.34-.2,2.21,2.21,0,0,1,.35-.16,2.84,2.84,0,0,1,.38-.13l.38-.1.4-.05Z"/></g><g id="Floppy-drive"><path id="Rectangle-26-Copy" class="cls-12" d="M463,547H565.51l.25,0,.25,0,.24.06.24.06.24.07.23.09.22.1.22.1.22.12.2.13.2.14a.9.9,0,0,1,.19.15l.19.15.17.17.17.17.15.19a1.39,1.39,0,0,1,.15.19,1.43,1.43,0,0,1,.14.2l.13.2.12.22c0,.07.07.14.1.22a2.14,2.14,0,0,1,.1.22l.09.23c0,.08,0,.16.07.24s.05.16.07.24a2,2,0,0,0,0,.24c0,.08,0,.17,0,.25l0,.25c0,.09,0,.17,0,.25a2.26,2.26,0,0,1,0,.26v62a2.26,2.26,0,0,1,0,.26c0,.08,0,.16,0,.25l0,.25c0,.08,0,.17,0,.25a2,2,0,0,0,0,.24c0,.08-.05.16-.07.24s0,.16-.07.24l-.09.23a2.14,2.14,0,0,1-.1.22c0,.08-.07.15-.1.22l-.12.22-.13.2a1.43,1.43,0,0,1-.14.2,1.39,1.39,0,0,1-.15.19l-.15.19-.17.17-.17.17-.19.15a.9.9,0,0,1-.19.15l-.2.14-.2.13-.22.12-.22.1-.22.1-.23.09-.24.07-.24.06-.24.06-.25,0-.25,0h-103l-.25,0-.25,0-.24-.06-.24-.06-.24-.07-.23-.09-.22-.1-.22-.1-.22-.12-.2-.13L460,618a.9.9,0,0,1-.19-.15l-.19-.15-.17-.17-.17-.17-.15-.19A.9.9,0,0,1,459,617a1.43,1.43,0,0,1-.14-.2l-.13-.2-.12-.22c0-.07-.07-.14-.1-.22a2.14,2.14,0,0,1-.1-.22l-.09-.23c0-.08,0-.16-.07-.24a2.1,2.1,0,0,1-.06-.24l-.06-.24c0-.08,0-.17,0-.25l0-.25c0-.09,0-.17,0-.25a2.26,2.26,0,0,1,0-.26V552a2.26,2.26,0,0,1,0-.26c0-.08,0-.16,0-.25l0-.25c0-.08,0-.17,0-.25l.06-.24a2.1,2.1,0,0,1,.06-.24c0-.08.05-.16.07-.24l.09-.23a2.14,2.14,0,0,1,.1-.22c0-.08.07-.15.1-.22l.12-.22.13-.2a1.43,1.43,0,0,1,.14-.2.9.9,0,0,1,.15-.19l.15-.19.17-.17.17-.17.19-.15A.9.9,0,0,1,460,548l.2-.14.2-.13.22-.12.22-.1.22-.1.23-.09.24-.07.24-.06.24-.06.25,0,.25,0H463Z"/><path id="Rectangle-25-Copy" class="cls-12" d="M312,564H547.41c.13,0,.27,0,.4,0l.4,0,.4.07.39.08.39.1.37.12.37.14a3,3,0,0,1,.36.16l.36.17.34.19.33.2.31.22.31.24a3.47,3.47,0,0,1,.29.25,10.7,10.7,0,0,1,.55.55,3.47,3.47,0,0,1,.25.29l.24.31.22.31c.07.11.14.22.2.33l.19.35.18.35q.07.16.15.36c.05.12.09.24.14.37l.12.37c0,.13.07.26.1.39s.06.26.08.39,0,.26.07.39,0,.27,0,.41l0,.4c0,.14,0,.27,0,.41v15c0,.14,0,.27,0,.41l0,.4c0,.14,0,.27,0,.41s0,.26-.07.39-.05.26-.08.39-.07.26-.1.39l-.12.37c0,.13-.09.25-.14.37s-.1.25-.15.36l-.18.35-.19.35c-.06.11-.13.22-.2.33l-.22.31-.24.31a3.47,3.47,0,0,1-.25.29,10.7,10.7,0,0,1-.55.55,3.47,3.47,0,0,1-.29.25l-.31.24-.31.22-.33.2-.34.19-.36.17a3,3,0,0,1-.36.16l-.37.14-.37.12-.39.1-.39.08-.4.07-.4,0c-.13,0-.27,0-.4,0H311.59c-.13,0-.27,0-.4,0l-.41,0-.39-.07-.39-.08-.39-.1-.37-.12-.37-.14a3,3,0,0,1-.36-.16l-.35-.17-.35-.19-.33-.2-.31-.22-.31-.24a3.47,3.47,0,0,1-.29-.25,10.7,10.7,0,0,1-.55-.55,3.47,3.47,0,0,1-.25-.29l-.24-.31-.22-.31c-.07-.11-.14-.22-.2-.33l-.19-.35a3.78,3.78,0,0,1-.17-.35,3,3,0,0,1-.16-.36c0-.12-.09-.24-.14-.37l-.12-.37c0-.13-.07-.26-.1-.39s-.06-.26-.08-.39,0-.26-.07-.39,0-.27,0-.41,0-.27,0-.4,0-.27,0-.41V572c0-.14,0-.27,0-.41s0-.27,0-.4,0-.27,0-.41,0-.26.07-.39.05-.26.08-.39.07-.26.1-.39l.12-.37c.05-.13.09-.25.14-.37a3,3,0,0,1,.16-.36,3.78,3.78,0,0,1,.17-.35l.19-.35c.06-.11.13-.22.2-.33l.22-.31.24-.31a3.47,3.47,0,0,1,.25-.29,10.7,10.7,0,0,1,.55-.55,3.47,3.47,0,0,1,.29-.25l.31-.24.31-.22.33-.2.35-.19.35-.17a3,3,0,0,1,.36-.16l.37-.14.37-.12.39-.1.39-.08.39-.07.41,0c.13,0,.27,0,.4,0Z"/><path id="Rectangle-26" class="cls-13" d="M486,574h58.51l.25,0,.25,0,.24.06.24.06.24.07.23.09.22.1.22.1.22.12.2.13.2.14a.9.9,0,0,1,.19.15l.19.15.17.17.17.17.15.19a.9.9,0,0,1,.15.19,1.43,1.43,0,0,1,.14.2l.13.2.12.22c0,.07.07.14.1.22a2.14,2.14,0,0,1,.1.22l.09.23c0,.08,0,.16.07.24a2.1,2.1,0,0,1,.06.24l.06.24c0,.08,0,.17,0,.25l0,.25c0,.09,0,.17,0,.25a2.26,2.26,0,0,1,0,.26v17a2.26,2.26,0,0,1,0,.26c0,.08,0,.16,0,.25l0,.25c0,.08,0,.17,0,.25l-.06.24a2.1,2.1,0,0,1-.06.24c0,.08,0,.16-.07.24l-.09.23a2.14,2.14,0,0,1-.1.22c0,.08-.07.15-.1.22l-.12.22-.13.2a1.43,1.43,0,0,1-.14.2.9.9,0,0,1-.15.19l-.15.19-.17.17-.17.17-.19.15a.9.9,0,0,1-.19.15l-.2.14-.2.13-.22.12-.22.1-.22.1-.23.09-.24.07-.24.06-.24.06-.25,0-.25,0h-59l-.25,0-.25,0-.24-.06-.24-.06-.24-.07-.23-.09-.22-.1-.22-.1-.22-.12-.2-.13L483,600a.9.9,0,0,1-.19-.15l-.19-.15-.17-.17-.17-.17-.15-.19A.9.9,0,0,1,482,599a1.43,1.43,0,0,1-.14-.2l-.13-.2-.12-.22c0-.07-.07-.14-.1-.22a2.14,2.14,0,0,1-.1-.22l-.09-.23c0-.08,0-.16-.07-.24a2.1,2.1,0,0,1-.06-.24l-.06-.24c0-.08,0-.17,0-.25l0-.25c0-.09,0-.17,0-.25a2.26,2.26,0,0,1,0-.26V579a2.26,2.26,0,0,1,0-.26c0-.08,0-.16,0-.25l0-.25c0-.08,0-.17,0-.25l.06-.24a2.1,2.1,0,0,1,.06-.24c0-.08.05-.16.07-.24l.09-.23a2.14,2.14,0,0,1,.1-.22c0-.08.07-.15.1-.22l.12-.22.13-.2a1.43,1.43,0,0,1,.14-.2.9.9,0,0,1,.15-.19l.15-.19.17-.17.17-.17.19-.15A.9.9,0,0,1,483,575l.2-.14.2-.13.22-.12.22-.1.22-.1.23-.09.24-.07.24-.06.24-.06.25,0,.25,0H486Z"/><path id="Rectangle-25" class="cls-13" d="M319,574H549v11H319Z"/><path id="Oval-5" class="cls-13" d="M559.5,601a2.5,2.5,0,1,0-2.5-2.5A2.5,2.5,0,0,0,559.5,601Z"/></g><g id="Screen"><path id="Rectangle-28" class="cls-14" d="M75,265.54c0-46.49,4.39-166,4.39-166s46.87-4.94,80.54-6.83c47-2.64,112-3.9,152.54-3.9,41.89,0,108.77,1.23,155.47,3.9,31.7,1.81,76.14,6.83,76.14,6.83s3.42,118.83,3.42,166c0,50.16-3.42,170.84-3.42,170.84s-46.59,5-76.14,5.86c-55.57,1.54-131.9,2.92-155.47,2.92-31.62,0-112-1.76-152.54-2.92-47.38-1.36-80.54-5.86-80.54-5.86S75,316.35,75,265.54Z"/><path id="Rectangle-29" class="cls-15" d="M103,120H519.51l.51,0,.5,0,.49.09.49.1.48.13a3.68,3.68,0,0,1,.47.15l.47.17.45.19.44.22.42.23.41.26.4.27.39.3.36.31c.12.11.24.22.35.34s.23.23.34.35l.31.36.3.39.27.4c.09.13.18.27.26.41s.16.28.23.42l.22.44c.07.15.13.3.19.45s.12.31.17.46a4.42,4.42,0,0,1,.15.48c0,.16.09.32.13.48s.07.32.1.49.06.32.08.49a4.26,4.26,0,0,1,.06.5c0,.17,0,.34,0,.51s0,.34,0,.51V404c0,.17,0,.34,0,.51s0,.34,0,.51a4.26,4.26,0,0,1-.06.5c0,.17,0,.33-.08.49s-.06.33-.1.49-.08.32-.13.48a3.68,3.68,0,0,1-.15.47c0,.16-.11.31-.17.47s-.12.3-.19.45l-.22.44c-.07.14-.15.28-.23.42s-.17.28-.26.41l-.27.4-.3.39-.31.36c-.11.12-.22.24-.34.35s-.23.23-.35.34l-.36.31-.39.3-.4.27-.41.26-.42.23-.44.22-.45.19-.47.17a3.68,3.68,0,0,1-.47.15l-.48.13-.49.1-.49.08a4.26,4.26,0,0,1-.5.06l-.51,0h-417l-.51,0a4.26,4.26,0,0,1-.5-.06l-.49-.08-.49-.1-.48-.13a4.42,4.42,0,0,1-.48-.15l-.46-.17-.45-.19-.44-.22-.42-.23-.41-.26-.4-.27-.39-.3-.36-.31c-.12-.11-.24-.22-.35-.34s-.23-.23-.34-.35l-.31-.36-.3-.39-.27-.4c-.09-.13-.18-.27-.26-.41s-.16-.28-.23-.42-.15-.29-.22-.44-.13-.3-.19-.45-.12-.31-.17-.47a3.68,3.68,0,0,1-.15-.47c0-.16-.09-.32-.13-.48s-.07-.32-.1-.49l-.09-.49c0-.17,0-.33,0-.5s0-.34,0-.51,0-.34,0-.51V130c0-.17,0-.34,0-.51s0-.34,0-.51,0-.33,0-.5l.09-.49c0-.17.06-.33.1-.49s.08-.32.13-.48a4.42,4.42,0,0,1,.15-.48c.05-.15.11-.3.17-.46s.12-.3.19-.45.14-.29.22-.44.15-.28.23-.42.17-.28.26-.41l.27-.4.3-.39.31-.36c.11-.12.22-.24.34-.35s.23-.23.35-.34l.36-.31.39-.3.4-.27.41-.26.42-.23.44-.22.45-.19.46-.17a4.42,4.42,0,0,1,.48-.15l.48-.13.49-.1.49-.09.5,0,.51,0Z"/><g id="Hello"><path id="Fill-1" class="cls-16" d="M229.27,219.93c3.59-1.18,7.94-1.3,11.06,1.12s3.94,6.66,4.25,10.4a29.87,29.87,0,0,1-3.4,15.37c-5.05,9-13,15.66-20.06,23a19.93,19.93,0,0,1,14.29-2.73c4.67.92,9.79,2.38,12.75,6.38,2.62,3.65,2,8.49.69,12.53-1.35,4.3-3.36,8.69-2.45,13.3.68,3.83,2.66,8.4,7,9.07,5.26.61,10-2.33,14.53-4.57a36.83,36.83,0,0,1-5.06-17.89c0-5,1-10.31,4.19-14.36,3-4,7.92-6.65,13-6.21a12.32,12.32,0,0,1,10.05,6.37,21.33,21.33,0,0,1,1.06,16.81c-2.27,6.55-7,11.93-12.25,16.33,3.79,2.28,8.5,2.27,12.64,1,7.06-2.12,13.13-6.63,18.42-11.63-2.95-10.46-2.86-21.46-2.17-32.21a122.19,122.19,0,0,1,3.75-24.13c1.44-4.59,3.47-9.29,7.21-12.51a13.19,13.19,0,0,1,12.87-2.24,11.38,11.38,0,0,1,6,5.5c1.94,3.73,2.31,8,2.3,12.16a80.11,80.11,0,0,1-2.82,22.86,87.73,87.73,0,0,1-18.71,32.47c1.66,3.58,4.37,7,8.39,8,6.17,1.55,12.48-.9,17.88-3.74a48,48,0,0,0,8.86-6.24c-5.05-11.72-5.7-24.87-3.91-37.36a89.88,89.88,0,0,1,6.54-23.71c2.4-5,5.77-10.19,11.27-12.12,4.06-1.58,8.58.47,11.29,3.57,3.25,3.75,4.31,8.83,4.6,13.65.5,9.37-1.79,18.61-4.73,27.44-3.58,10.69-8.57,21.08-16,29.66,2.54,3.78,6.11,7.2,10.67,8.3A17.44,17.44,0,0,0,384.74,302c2.64-1.39,5-3.68,5.64-6.7,1.54-7.54,2.31-15.7,7.11-22.06,3.06-4.12,8.22-6.23,13.29-6.29,5.85-.26,12.17,1.85,15.6,6.81,5.38,1,11.31.49,15.9-2.69a24.39,24.39,0,0,0,4.31-4c2.26-2.26,7.07,0,6.24,3.28a13.6,13.6,0,0,1-3.27,4.39c-5.24,5.05-12.82,6.91-19.95,6.68a51.91,51.91,0,0,1,.17,11.82c-.32,3.75-1,7.73-3.51,10.7-7.83,9.42-24.4,9.56-32.33.18a25.33,25.33,0,0,1-20.22,7c-6.73-.8-12.54-5.15-16.48-10.47a46.32,46.32,0,0,1-23,11c-5.27.84-11,0-15.41-3.11a19.87,19.87,0,0,1-6-6.88c-7.13,6.31-15.87,11.45-25.54,12.3a19.92,19.92,0,0,1-14.79-4.5c-5.34,3.23-11.17,6.29-17.55,6.52a14,14,0,0,1-12.06-6.07,23.79,23.79,0,0,1-3.67-17.44c.74-4.34,3.57-8.16,3.54-12.65.06-2.21-2.08-3.46-3.81-4.33-4-1.76-8.93-2.07-12.9,0-4,2.37-6.63,6.51-8.47,10.7a68.76,68.76,0,0,0-5.07,20.09c-.37,2-.14,4.34-1.68,5.91-2,2.16-6.47.13-6.11-2.84.19-4.46,1.14-8.83,1.63-13.25q1-7.87,2-15.73A243.41,243.41,0,0,1,177,297.72c-1.19.54-2.55,1.15-3.86.63-2.35-.69-3.89-4.13-1.8-5.91,2.17-1.4,4.66-2.24,6.94-3.47a229.36,229.36,0,0,0,29.54-17.18c.81-.72,2.14-1.19,2.21-2.43a248.62,248.62,0,0,1,6.23-28c1.59-5.54,3-11.29,6.27-16.14a12.73,12.73,0,0,1,6.71-5.26Zm3,6.67c-2.61.67-3.63,3.41-4.88,5.48-4.71,9.23-6.13,19.63-8.26,29.64,3.73-3.74,7.3-7.64,10.73-11.66a33.17,33.17,0,0,0,6.53-11.28,16.59,16.59,0,0,0-.1-11.08c-.6-1.65-2.64-1.57-4-1.1Zm136.07,2c-3.38,2.37-5.21,6.25-6.64,10a102,102,0,0,0-4.93,19.92c-1.36,9.87-1.17,20.19,2.24,29.65,6.64-8.26,10.4-18.31,13.62-28.28,2.47-7.91,4.18-16.37,2.57-24.64-.52-2.3-1.14-4.73-2.78-6.51a3.08,3.08,0,0,0-4.08-.13Zm-45.57,2.95c-2.21,2.29-3.29,5.38-4.14,8.37-2.73,10.09-3.62,20.57-3.83,31a83.7,83.7,0,0,0,1,16.74C327.3,273.46,334,255,332.24,236.74c-.34-2.39-.86-5.14-3-6.61-2.14-1.22-4.86-.24-6.48,1.38Zm-47.28,42.13c-2.88,1.69-4.39,4.94-4.93,8.1a27.4,27.4,0,0,0,3.33,17.95c4.91-3.93,9.24-9.07,10.67-15.31.84-3.64.51-7.91-2.17-10.74-2-1.52-4.85-1.18-6.9,0Zm131.9,1.17c-5.06,2.07-7,7.75-8,12.64-.54,3.2-1.85,6.58-.64,9.79a9.4,9.4,0,0,0,6,5.69,16.58,16.58,0,0,0,12.73-1,9,9,0,0,0,4.45-6.74c.78-4.65,1.42-9.54,0-14.12-1.69-5.93-9.05-8.2-14.48-6.27Z"/><path id="Fill-2" class="cls-16" d="M443.7,302.59c3.32-.9,6.55,2.88,5.05,6a4.52,4.52,0,0,1-7.61,1,4.41,4.41,0,0,1,2.56-7"/></g></g><path id="Logo-Background" class="cls-17" d="M58,611H92l.41,0,.4.05.38.1a2.84,2.84,0,0,1,.38.13,2.21,2.21,0,0,1,.35.16,2.33,2.33,0,0,1,.34.2l.31.22.29.26c.09.09.17.19.26.29a3.46,3.46,0,0,1,.22.31,2.33,2.33,0,0,1,.2.34,2.21,2.21,0,0,1,.16.35,2.84,2.84,0,0,1,.13.38c0,.12.07.25.1.38s0,.27,0,.4,0,.27,0,.41v33c0,.14,0,.27,0,.41s0,.26,0,.4-.06.26-.1.38a2.84,2.84,0,0,1-.13.38,2.21,2.21,0,0,1-.16.35,2.33,2.33,0,0,1-.2.34,3.46,3.46,0,0,1-.22.31c-.09.1-.17.2-.26.29l-.29.26-.31.22a2.33,2.33,0,0,1-.34.2,2.21,2.21,0,0,1-.35.16,2.84,2.84,0,0,1-.38.13l-.38.1-.4.05L92,652H58l-.41,0-.4-.05-.38-.1a2.84,2.84,0,0,1-.38-.13,2.21,2.21,0,0,1-.35-.16,2.33,2.33,0,0,1-.34-.2l-.31-.22-.29-.26c-.09-.09-.17-.19-.26-.29a3.46,3.46,0,0,1-.22-.31,2.33,2.33,0,0,1-.2-.34,2.21,2.21,0,0,1-.16-.35,2.84,2.84,0,0,1-.13-.38c0-.12-.07-.25-.1-.38s0-.27,0-.4,0-.27,0-.41V615c0-.14,0-.27,0-.41s0-.26,0-.4.06-.26.1-.38a2.84,2.84,0,0,1,.13-.38,2.21,2.21,0,0,1,.16-.35,2.33,2.33,0,0,1,.2-.34,3.46,3.46,0,0,1,.22-.31c.09-.1.17-.2.26-.29l.29-.26.31-.22a2.33,2.33,0,0,1,.34-.2,2.21,2.21,0,0,1,.35-.16,2.84,2.84,0,0,1,.38-.13l.38-.1.4-.05Z"/><g class="cls-18"><g id="Apple-Logo"><path class="cls-19" d="M75.55,617.65a7.88,7.88,0,0,1,4.37-2.51,1.75,1.75,0,0,1,.6,0,1.86,1.86,0,0,1,.08.78,7.16,7.16,0,0,1-1.5,4.19,7.36,7.36,0,0,1-4,2.32,2.57,2.57,0,0,1-.91.09,5,5,0,0,1,0-1.89,6.51,6.51,0,0,1,1.27-2.94"/><path class="cls-19" d="M67.27,622.52a5.7,5.7,0,0,1,2.39-.28c1.68.19,3.22,1,4.88,1.28a4.67,4.67,0,0,0,2.21-.28,15.38,15.38,0,0,1,4.47-1,7.4,7.4,0,0,1,5.89,3.36,5.73,5.73,0,0,0-.75.45c-7.93,0-15.85,0-23.78,0a8.3,8.3,0,0,1,4.69-3.49"/><path id="Fill-3" class="cls-20" d="M62.58,626c7.93,0,15.85,0,23.78,0a6.43,6.43,0,0,0-2.61,4.1c-7.52,0-15,0-22.57,0a10,10,0,0,1,1.4-4.12"/><path id="Fill-4" class="cls-21" d="M61.18,630.13h0c7.53,0,15.05,0,22.57,0a7.15,7.15,0,0,0,.49,4.13h-23a15.36,15.36,0,0,1-.07-4.12"/><path id="Fill-5" class="cls-22" d="M61.25,634.25h23A6.24,6.24,0,0,0,88,637.71c0,.23-.16.47-.22.7h0c-4.36,0-8.72,0-13.08,0-4.08,0-8.17,0-12.25,0a17.38,17.38,0,0,1-1.15-4.16"/><path id="Fill-6" class="cls-23" d="M62.4,638.41c4.08,0,8.17,0,12.25,0,4.36,0,8.72,0,13.08,0a16.81,16.81,0,0,1-2,3.72h0c-7.07,0-14.15,0-21.23,0a18.19,18.19,0,0,1-2.06-3.71"/><path id="Fill-7" class="cls-24" d="M64.46,642.12c7.08,0,14.16,0,21.23,0A12.92,12.92,0,0,1,82.93,645a4.11,4.11,0,0,1-2,.89,12.26,12.26,0,0,1-4.11-1.08,4.81,4.81,0,0,0-2-.34,11.33,11.33,0,0,0-2.91.86,6.93,6.93,0,0,1-3,.52,6.34,6.34,0,0,1-2.79-1.75,14.45,14.45,0,0,1-1.72-2"/></g></g></g></g></svg>