<svg class="logo" xmlns="http://www.w3.org/2000/svg" viewBox="-0.25 -0.25 163.38 64.5">
    <defs>
        <style>
            path {
            stroke: rgba(225,65,35,1);
            stroke-width: 0.5;
            stroke-linecap: round;
            fill: rgba(225,65,35,0);
            }
        </style>
    </defs>
    <title>type_evolved</title>
    <g class="path-group">
        <path class="a" d="M11.41,5.07l.42.42h4.22l.42.42V11l-.42.43H11.83l-.42.42v7.6a1.12,1.12,0,0,0,1.26,1.27h3.38l.42.42v5.07l-.42.42H11.41a10.53,10.53,0,0,1-2.73-.34A6.34,6.34,0,0,1,6.4,25.18a5.49,5.49,0,0,1-1.58-2,6.51,6.51,0,0,1-.6-2.93V11.83l-.42-.42H.42L0,11V5.91l.42-.42H3.8l.42-.42V.42L4.65,0H11l.43.42Z"/>
        <path class="a" d="M18.94,11V5.91l.42-.42H24l.42.42L29.08,19h.42l4.65-13.1.42-.42h4.64l.43.42V11l-6.76,16.9a15.76,15.76,0,0,1-1.4,2.79,6.76,6.76,0,0,1-1.88,2,8,8,0,0,1-2.68,1.18,15.1,15.1,0,0,1-3.76.41H20.21l-.43-.43V28.72l.43-.42h2.95a6.91,6.91,0,0,0,1.59-.15c.41-.09.72-.47.95-1.11v-.43Z"/>
        <path class="a" d="M64,20.61a10.36,10.36,0,0,1-1.9,3.47,8.1,8.1,0,0,1-2.94,2.19,9.15,9.15,0,0,1-3.78.77,7.81,7.81,0,0,1-3-.58,4.23,4.23,0,0,1-2.05-1.54h-.42v9.72l-.42.42H43.12l-.42-.42V5.91l.42-.42H49l.43.42.42,1.27h.42a4.23,4.23,0,0,1,2.05-1.54,8,8,0,0,1,3-.57,9.15,9.15,0,0,1,3.78.76A8.25,8.25,0,0,1,62.09,8,10.31,10.31,0,0,1,64,11.49a14.38,14.38,0,0,1,.67,4.56A14.38,14.38,0,0,1,64,20.61Zm-6.8-7a4.41,4.41,0,0,0-.81-1.56,2.85,2.85,0,0,0-1.2-.84,4.38,4.38,0,0,0-1.5-.26A3.65,3.65,0,0,0,51,12.1c-.74.75-1.1,2.07-1.1,4a8.68,8.68,0,0,0,.29,2.41A4.24,4.24,0,0,0,51,20a2.79,2.79,0,0,0,1.2.85,4.29,4.29,0,0,0,1.5.25,4.37,4.37,0,0,0,1.5-.25,2.79,2.79,0,0,0,1.2-.85,4.24,4.24,0,0,0,.81-1.56,8.68,8.68,0,0,0,.29-2.41A8.68,8.68,0,0,0,57.19,13.64Z"/>
        <path class="a" d="M87.59,18.16H74.91l-.42.43a4,4,0,0,0,.11.82,2.52,2.52,0,0,0,.46,1,2.77,2.77,0,0,0,1,.83,4.05,4.05,0,0,0,1.77.33,2.55,2.55,0,0,0,2.53-1.26l.43-.43h6.33l.43.43a7.92,7.92,0,0,1-.77,2.13,7.72,7.72,0,0,1-1.73,2.2,9.51,9.51,0,0,1-2.91,1.73,11.9,11.9,0,0,1-4.31.7,13.3,13.3,0,0,1-4.94-.83,9,9,0,0,1-3.4-2.28,9.35,9.35,0,0,1-2-3.48,14.19,14.19,0,0,1-.65-4.4,14.69,14.69,0,0,1,.63-4.39,9.38,9.38,0,0,1,1.94-3.49,9,9,0,0,1,3.3-2.28,13.82,13.82,0,0,1,9.38,0,9,9,0,0,1,3.29,2.28,9.38,9.38,0,0,1,1.94,3.49A14.38,14.38,0,0,1,88,16.05v1.69ZM80.3,12.52a2.74,2.74,0,0,0-.42-.84A2.82,2.82,0,0,0,79,10.9a3,3,0,0,0-1.52-.34,3,3,0,0,0-1.54.34,2.77,2.77,0,0,0-1.42,2.2l.42.42H80l.42-.42A2.55,2.55,0,0,0,80.3,12.52Z"/>
        <path class="a" d="M95.38,33l-.85.42H91.15v-.84l3.38-5.07V27l-.42-.43H92l-.43-.42V19.43L92,19h7.6l.42.42v7.18l-.42,1.27Z"/>
        <path class="a" d="M21.12,55.13H8.45L8,55.55a3.86,3.86,0,0,0,.1.82,2.59,2.59,0,0,0,.47,1,2.79,2.79,0,0,0,1,.82,3.92,3.92,0,0,0,1.78.34,2.54,2.54,0,0,0,2.53-1.27l.42-.42H20.7l.42.42a7.33,7.33,0,0,1-.76,2.13,7.59,7.59,0,0,1-1.73,2.2,9.26,9.26,0,0,1-2.92,1.73,11.63,11.63,0,0,1-4.3.7,13.36,13.36,0,0,1-4.95-.82,9,9,0,0,1-3.4-2.29,9.33,9.33,0,0,1-2-3.48A14.12,14.12,0,0,1,.42,53a14.49,14.49,0,0,1,.64-4.4A9.26,9.26,0,0,1,3,45.14a9,9,0,0,1,3.29-2.28A12.21,12.21,0,0,1,11,42a12.13,12.13,0,0,1,4.69.83A9,9,0,0,1,19,45.14a9.26,9.26,0,0,1,1.94,3.48,14.81,14.81,0,0,1,.63,4.4v1.69Zm-7.29-5.64a2.68,2.68,0,0,0-.42-.85,2.85,2.85,0,0,0-.91-.78A3.08,3.08,0,0,0,11,47.53a3.09,3.09,0,0,0-1.54.33,3.12,3.12,0,0,0-.89.78,2.68,2.68,0,0,0-.42.85,2.58,2.58,0,0,0-.1.57l.42.42h5.07l.42-.42A2.79,2.79,0,0,0,13.83,49.49Z"/>
        <path class="a" d="M36.61,63.58H31.12l-.42-.43L23.52,48V42.88l.42-.42h4.65l.42.42,4.65,11.83h.42l4.64-11.83.43-.42h4.64l.43.42V48L37,63.15Z"/>
        <path class="a" d="M67.38,57.58a9.42,9.42,0,0,1-5.67,5.66,14.06,14.06,0,0,1-9.12,0,9.43,9.43,0,0,1-5.66-5.66,14.06,14.06,0,0,1,0-9.12,9.42,9.42,0,0,1,5.66-5.67,14.06,14.06,0,0,1,9.12,0,9.4,9.4,0,0,1,5.67,5.67,14.06,14.06,0,0,1,0,9.12Zm-6.72-7a4.39,4.39,0,0,0-.8-1.56,2.82,2.82,0,0,0-1.21-.85,4.29,4.29,0,0,0-1.5-.25,3.61,3.61,0,0,0-2.7,1.12c-.73.74-1.1,2.06-1.1,4a8.21,8.21,0,0,0,.3,2.4,4.22,4.22,0,0,0,.8,1.57,2.92,2.92,0,0,0,1.2.84,4.38,4.38,0,0,0,1.5.26,4.3,4.3,0,0,0,1.5-.26A2.89,2.89,0,0,0,59.86,57a4.53,4.53,0,0,0,.8-1.57,10.12,10.12,0,0,0,0-4.81Z"/>
        <path class="a" d="M71.77,63.58l-.43-.43V34.43l.43-.42H78.1l.42.42V63.15l-.42.43Z"/>
        <path class="a" d="M94.55,63.58H89.06l-.43-.43L81.45,48V42.88l.42-.42h4.65l.42.42,4.65,11.83H92l4.65-11.83.42-.42h4.65l.42.42V48L95,63.15Z"/>
        <path class="a" d="M124.82,55.13H112.15l-.42.42a3.86,3.86,0,0,0,.1.82,2.75,2.75,0,0,0,.47,1,2.79,2.79,0,0,0,1,.82,4,4,0,0,0,1.78.34,2.54,2.54,0,0,0,2.53-1.27l.43-.42h6.33l.42.42a7.33,7.33,0,0,1-.76,2.13,7.59,7.59,0,0,1-1.73,2.2,9.32,9.32,0,0,1-2.91,1.73,11.72,11.72,0,0,1-4.31.7,13.31,13.31,0,0,1-4.94-.82,8.92,8.92,0,0,1-3.4-2.29,9.35,9.35,0,0,1-2-3.48,14.12,14.12,0,0,1-.65-4.39,14.81,14.81,0,0,1,.63-4.4,9.26,9.26,0,0,1,1.94-3.48,9,9,0,0,1,3.3-2.28,13.67,13.67,0,0,1,9.38,0,9,9,0,0,1,3.29,2.28,9.26,9.26,0,0,1,1.94,3.48,14.49,14.49,0,0,1,.64,4.4v1.69Zm-7.28-5.64a2.68,2.68,0,0,0-.42-.85,3.4,3.4,0,0,0-4-.78,2.84,2.84,0,0,0-1.31,1.63,2.58,2.58,0,0,0-.1.57l.42.42h5.07l.42-.42A2.58,2.58,0,0,0,117.54,49.49Z"/>
        <path class="a" d="M128.22,48.46a10.18,10.18,0,0,1,1.9-3.47,8.21,8.21,0,0,1,2.93-2.2,9.4,9.4,0,0,1,3.79-.76,8,8,0,0,1,3,.57,4.21,4.21,0,0,1,2,1.55h.43V34.43l.42-.42h6.34l.42.42V63.15l-.42.43h-5.92l-.42-.43-.42-1.26h-.43a4.2,4.2,0,0,1-2,1.54,8,8,0,0,1-3,.57,9.23,9.23,0,0,1-3.79-.76,8.21,8.21,0,0,1-2.93-2.2,10.14,10.14,0,0,1-1.9-3.46,15.63,15.63,0,0,1,0-9.12Zm6.8,7a4.37,4.37,0,0,0,.8,1.57,2.89,2.89,0,0,0,1.21.84,4.43,4.43,0,0,0,3,0,2.89,2.89,0,0,0,1.21-.84,4.37,4.37,0,0,0,.8-1.57,9.79,9.79,0,0,0,0-4.81,4.24,4.24,0,0,0-.8-1.56A2.82,2.82,0,0,0,140,48.2a4.28,4.28,0,0,0-1.49-.25,3.64,3.64,0,0,0-2.71,1.12c-.73.74-1.1,2.06-1.1,4A8.21,8.21,0,0,0,135,55.42Z"/>
        <path class="a" d="M154.86,63.58l-.43-.43V56.4l.43-.43h7.6l.42.43v6.75l-.42.43Z"/>
    </g>
</svg>